<svg version="1.1" xmlns="http://www.w3.org/2000/svg" viewBox="0 0 504.92665640634334 348.2571802252819" width="1009.8533128126867" height="696.5143604505638">
  <!-- svg-source:excalidraw -->

  <defs>
    <style>
      @font-face {
        font-family: "Virgil";
        src: url("https://unpkg.com/@zsviczian/excalidraw@0.12.0-obsidian-10/dist/excalidraw-assets/Virgil.woff2");
      }
      @font-face {
        font-family: "Cascadia";
        src: url("https://unpkg.com/@zsviczian/excalidraw@0.12.0-obsidian-10/dist/excalidraw-assets/Cascadia.woff2");
      }
    </style>
  </defs>
  <rect x="0" y="0" width="504.92665640634334" height="348.2571802252819" fill="#ffffff"></rect><g stroke-linecap="round" transform="translate(55.15244747629981 150.2172778324492) rotate(0 38.35742976762623 55.589688143844924)"><path d="M1.19 -1.31 C20.88 1.33, 44.19 0.76, 78.25 0.95 M-0.47 -0.93 C20.31 0.01, 40.66 0.4, 76.35 0.16 M75.91 -0.66 C77.76 29.12, 78.44 62.16, 76.32 111.02 M76.92 -0.14 C76.03 35.46, 76.08 72.07, 77.37 110.71 M75.85 112.91 C47.39 112.27, 20.5 112.81, -1.08 112.38 M75.82 111.23 C54.72 111.53, 32.49 110.32, 0.04 111.21 M0.54 110.21 C-0.63 78.64, 1.71 50.58, -1.2 1.82 M-0.86 111.22 C-1.4 71.53, -0.07 32.14, 0.36 -0.28" stroke="#000000" stroke-width="1" fill="none"></path></g><g stroke-linecap="round" transform="translate(209.34158240529632 148.56715931167685) rotate(0 38.35742976762623 55.589688143844924)"><path d="M-1.31 -1.91 C30.12 -1.86, 58.61 1.08, 77.67 -0.58 M-0.93 -0.48 C19.55 -0.56, 39.59 -0.01, 76.88 -0.21 M76.06 1.03 C75.61 35.2, 77.59 66.58, 76.55 111.72 M76.58 -0.08 C75.3 27.29, 75.54 55.3, 76.24 111.8 M78.44 109.6 C53.93 110.13, 30.75 109.77, 1.2 110.92 M76.76 111.2 C57.89 110.29, 36.98 110.54, 0.03 110.97 M-0.96 110.46 C-2.54 80.39, 0.42 45.17, 1.82 1.07 M0.04 110.3 C0.3 73.06, 0.23 34.41, -0.28 0.68" stroke="#000000" stroke-width="1" fill="none"></path></g><g transform="translate(67.29107789182001 271.4587745996848) rotate(0 21 12.5)"><text x="0" y="18" font-family="Virgil, Segoe UI Emoji" font-size="20px" fill="#000000" text-anchor="start" style="white-space: pre;" direction="ltr">.qmd</text></g><g transform="translate(228.90622673880625 269.4920938059701) rotate(0 16 12.5)"><text x="0" y="18" font-family="Virgil, Segoe UI Emoji" font-size="20px" fill="#000000" text-anchor="start" style="white-space: pre;" direction="ltr">.md</text></g><g stroke-linecap="round" transform="translate(369.34515830377984 70.1529075957348) rotate(0 26.5 32.5)"><path d="M-1.4 0.48 C13.97 0.67, 24.29 -1.16, 52.72 -0.93 M-0.92 0.3 C10.59 0.21, 21.7 0.06, 53.75 -0.4 M54.71 0.04 C52.94 17.19, 53.88 33.63, 52.08 65.4 M52.97 -0.66 C53.6 18.13, 53.57 37.29, 53.21 64.57 M52.28 66.47 C31.44 66.45, 11.78 64.38, -1.4 63.22 M52.8 64.67 C36.88 65.5, 20.46 65.38, 0.92 65.27 M1.61 66.45 C-0.97 50.46, 1.31 33.21, -1.13 -1.72 M0.45 64.6 C0.93 44.93, 1.26 24.59, -0.81 0.89" stroke="#000000" stroke-width="1" fill="none"></path></g><g transform="translate(379.34515830377984 90.1529075957348) rotate(0 16.5 12.5)"><text x="16.5" y="18" font-family="Virgil, Segoe UI Emoji" font-size="20px" fill="#000000" text-anchor="middle" style="white-space: pre;" direction="ltr">pdf</text></g><g stroke-linecap="round" transform="translate(370.20024143641456 151.07219519642143) rotate(0 26.5 33)"><path d="M1.54 0.95 C18.14 -1.01, 37.16 -1.06, 51.13 -0.97 M-0.37 0.16 C15.17 -0.14, 31.51 -0.56, 52.67 0.52 M52.6 -0.16 C54.11 12.3, 52.64 27.17, 52.72 65.84 M53.65 -0.47 C53.6 13.93, 53.19 27.25, 53.86 65.21 M51.92 67.2 C34.37 65.53, 14.87 64.6, 0.1 66.03 M53.04 66.03 C32.22 65.74, 12.78 66.09, -0.48 65.64 M-1.2 67.82 C0.54 52.12, -1.66 34.65, 0.09 -1.76 M0.36 65.72 C0.39 47.54, -1.11 31.64, 0.99 0.37" stroke="#000000" stroke-width="1" fill="none"></path></g><g transform="translate(376.20024143641456 171.57219519642143) rotate(0 20.5 12.5)"><text x="20.5" y="18" font-family="Virgil, Segoe UI Emoji" font-size="20px" fill="#000000" text-anchor="middle" style="white-space: pre;" direction="ltr">html</text></g><g stroke-linecap="round" transform="translate(372.94774904124404 237.9003536936453) rotate(0 27 34)"><path d="M-0.58 -0.88 C17.23 -1.19, 33.15 -1.22, 53.8 -1.84 M-0.21 0.01 C18.55 -0.49, 35.26 0.43, 53.03 0.86 M54.54 -1.08 C52.94 20.93, 53.59 40.89, 52.19 67.93 M54.62 0.09 C54.65 15.46, 55.31 30.99, 54.47 67.64 M53.74 67.14 C32.44 66.54, 13.77 68.36, 1.76 67.6 M53.79 67.91 C40.49 68.28, 24.65 67.66, -0.76 68.81 M1.07 68.94 C-0.72 40.95, 0.5 15.59, -0.66 0.9 M0.68 67.16 C-1.06 51.22, 0.75 33.02, -0.09 0.16" stroke="#000000" stroke-width="1" fill="none"></path></g><g transform="translate(376.94774904124404 259.4003536936453) rotate(0 23 12.5)"><text x="23" y="18" font-family="Virgil, Segoe UI Emoji" font-size="20px" fill="#000000" text-anchor="middle" style="white-space: pre;" direction="ltr">docx</text></g><g stroke-linecap="round" transform="translate(62.5258617069976 162.592563940599) rotate(0 29.5 17.5)"><path d="M-0.28 -0.93 C18.64 -0.71, 40.81 -1.58, 59.59 -0.73 M0.75 -0.4 C18.32 0.51, 36.32 0.85, 59.02 -0.2 M58.08 0.4 C58.82 10.05, 57.29 20.36, 57.67 36.3 M59.21 -0.43 C60.08 8.05, 59.68 17.33, 59.73 34.46 M57.6 33.22 C37.86 34.78, 18.29 34.34, -0.65 35.08 M59.92 35.27 C40.64 34.59, 22.49 35.76, 0.72 34.4 M-1.13 33.28 C-0.1 19.55, -0.85 8.51, -0.8 0.73 M-0.81 35.89 C0.75 25.85, -0.33 16.11, -0.16 0.57" stroke="#495057" stroke-width="1" fill="none"></path></g><g transform="translate(68.5258617069976 167.592563940599) rotate(0 23.5 12.5)"><text x="23.5" y="18" font-family="Virgil, Segoe UI Emoji" font-size="20px" fill="#495057" text-anchor="middle" style="white-space: pre;" direction="ltr">text</text></g><g stroke-linecap="round" transform="translate(218.6297560173557 161.30335296513613) rotate(0 29.5 17.5)"><path d="M-1.87 -0.97 C14.91 -1.57, 30.81 -0.46, 59.32 -0.41 M-0.33 0.52 C16.8 1.09, 35.56 0.04, 58.92 0.27 M58.72 -0.16 C57.03 8.54, 57.51 18.51, 58.05 36.23 M59.86 -0.79 C59.54 10.46, 59.81 21.1, 59.6 34.87 M59.1 35.03 C45.61 34.07, 28.04 34.56, 0.06 34.58 M58.52 34.64 C41.05 35.96, 25.33 34.56, 0.91 35.54 M0.09 33.24 C-0.46 23.76, -0.6 11.44, -0.56 1.37 M0.99 35.37 C0.19 27.61, 0.13 20.45, 0.14 0.22" stroke="#495057" stroke-width="1" fill="none"></path></g><g transform="translate(224.6297560173557 166.30335296513613) rotate(0 23.5 12.5)"><text x="23.5" y="18" font-family="Virgil, Segoe UI Emoji" font-size="20px" fill="#495057" text-anchor="middle" style="white-space: pre;" direction="ltr">text</text></g><g stroke-linecap="round" transform="translate(62.94655451121184 216.5426946560708) rotate(0 30 15)"><path d="M-0.2 -1.84 C15.8 -0.44, 30.74 -0.12, 60.02 1.51 M-0.97 0.86 C15.6 -0.51, 31.08 -0.04, 59.46 -0.46 M58.19 -0.07 C58.63 10.91, 59.01 20.44, 60.18 30.42 M60.47 -0.36 C60.99 7.16, 60.86 15.26, 59.57 29.3 M61.76 29.6 C46.7 30.09, 34.77 29.59, -0.17 31.84 M59.24 30.81 C41.11 29.18, 21.69 30.32, 0.47 29.43 M-0.66 30.9 C-0.82 24.31, -0.57 18.54, -1.68 -1.62 M-0.09 30.16 C-0.46 18.9, -0.15 6.88, -0.99 0.76" stroke="#e67700" stroke-width="1" fill="none"></path></g><g transform="translate(74.44655451121184 221.5426946560708) rotate(0 18.5 10)"><text x="18.5" y="14" font-family="Virgil, Segoe UI Emoji" font-size="16px" fill="#e67700" text-anchor="middle" style="white-space: pre;" direction="ltr">code</text></g><g stroke-linecap="round" transform="translate(217.2955346984637 214.45230628121885) rotate(0 32 15)"><path d="M0.59 -0.73 C16.42 0.18, 32.23 2.1, 63.19 -0.66 M0.02 -0.2 C22.43 -0.28, 44.48 -1.01, 64.2 -0.14 M62.67 1.3 C62.78 10, 63.91 17.94, 63.13 31.73 M64.73 -0.54 C64.74 6.5, 63.71 12.56, 63.11 30.05 M63.35 30.08 C44.76 29.45, 25.23 31.71, 0.54 29.04 M64.72 29.4 C48.02 31.05, 30.68 29.95, -0.86 30.04 M-0.8 30.73 C-0.46 25.01, -1.58 15.66, 1.78 1.99 M-0.16 30.57 C0.17 20.11, -0.97 10.54, 0.82 -0.57" stroke="#c92a2a" stroke-width="1" fill="none"></path></g><g transform="translate(221.7955346984637 219.45230628121885) rotate(0 27.5 10)"><text x="27.5" y="14" font-family="Virgil, Segoe UI Emoji" font-size="16px" fill="#c92a2a" text-anchor="middle" style="white-space: pre;" direction="ltr">output</text></g><g stroke-linecap="round"><g transform="translate(145.44660084729912 200.7142414889576) rotate(0 26.510588984066374 -0.7771557060413157)"><path d="M-0.44 0.19 C8.66 -0.16, 44.28 -1.34, 53.46 -1.75 M1.53 -0.75 C10.54 -0.93, 43.58 -0.13, 52.38 -0.2" stroke="#000000" stroke-width="1" fill="none"></path></g><g transform="translate(145.44660084729912 200.7142414889576) rotate(0 26.510588984066374 -0.7771557060413157)"><path d="M27.37 8.34 C32.32 8.49, 36.76 4.46, 53.42 -2.15 M26.97 9.03 C36.27 4.89, 46.79 1.76, 52.3 -1.1" stroke="#000000" stroke-width="1" fill="none"></path></g><g transform="translate(145.44660084729912 200.7142414889576) rotate(0 26.510588984066374 -0.7771557060413157)"><path d="M27.54 -10.03 C32.51 -6.06, 36.91 -6.27, 53.42 -2.15 M27.14 -9.35 C36.38 -6.4, 46.83 -2.45, 52.3 -1.1" stroke="#000000" stroke-width="1" fill="none"></path></g></g><g stroke-linecap="round"><g transform="translate(297.76278908013626 207.9648255461645) rotate(0 28.749998641901414 -0.3187073615637761)"><path d="M0 0 C9.58 -0.11, 47.92 -0.53, 57.5 -0.64 M0 0 C9.58 -0.11, 47.92 -0.53, 57.5 -0.64" stroke="#000000" stroke-width="1" fill="none"></path></g><g transform="translate(297.76278908013626 207.9648255461645) rotate(0 28.749998641901414 -0.3187073615637761)"><path d="M30.59 9.5 C39.46 6.16, 48.33 2.82, 57.5 -0.64 M30.59 9.5 C38.71 6.44, 46.84 3.38, 57.5 -0.64" stroke="#000000" stroke-width="1" fill="none"></path></g><g transform="translate(297.76278908013626 207.9648255461645) rotate(0 28.749998641901414 -0.3187073615637761)"><path d="M30.37 -10.17 C39.31 -7.03, 48.25 -3.89, 57.5 -0.64 M30.37 -10.17 C38.56 -7.29, 46.75 -4.42, 57.5 -0.64" stroke="#000000" stroke-width="1" fill="none"></path></g></g><g stroke-linecap="round"><g transform="translate(292.58134649299404 206.6509023204477) rotate(0 33.949465457330064 -41.91166416689997)"><path d="M0 0 C11.32 -13.97, 56.58 -69.85, 67.9 -83.82 M0 0 C11.32 -13.97, 56.58 -69.85, 67.9 -83.82" stroke="#000000" stroke-width="1" fill="none"></path></g><g transform="translate(292.58134649299404 206.6509023204477) rotate(0 33.949465457330064 -41.91166416689997)"><path d="M58.13 -55.46 C60.7 -62.93, 63.28 -70.4, 67.9 -83.82 M58.13 -55.46 C60.86 -63.4, 63.6 -71.35, 67.9 -83.82" stroke="#000000" stroke-width="1" fill="none"></path></g><g transform="translate(292.58134649299404 206.6509023204477) rotate(0 33.949465457330064 -41.91166416689997)"><path d="M42.18 -68.38 C48.96 -72.45, 55.73 -76.52, 67.9 -83.82 M42.18 -68.38 C49.38 -72.7, 56.59 -77.03, 67.9 -83.82" stroke="#000000" stroke-width="1" fill="none"></path></g></g><g stroke-linecap="round"><g transform="translate(301.1959381960627 217.9240797069957) rotate(0 30.207758971801752 28.488164086099232)"><path d="M0 0 C10.07 9.5, 50.35 47.48, 60.42 56.98 M0 0 C10.07 9.5, 50.35 47.48, 60.42 56.98" stroke="#000000" stroke-width="1" fill="none"></path></g><g transform="translate(301.1959381960627 217.9240797069957) rotate(0 30.207758971801752 28.488164086099232)"><path d="M32.87 45.1 C41.57 48.85, 50.28 52.61, 60.42 56.98 M32.87 45.1 C40.91 48.57, 48.94 52.03, 60.42 56.98" stroke="#000000" stroke-width="1" fill="none"></path></g><g transform="translate(301.1959381960627 217.9240797069957) rotate(0 30.207758971801752 28.488164086099232)"><path d="M46.95 30.17 C51.2 38.64, 55.46 47.11, 60.42 56.98 M46.95 30.17 C50.88 37.99, 54.81 45.81, 60.42 56.98" stroke="#000000" stroke-width="1" fill="none"></path></g></g><g transform="translate(151.29740840866248 166.2169188873312) rotate(0 18.5 10)"><text x="0" y="14" font-family="Virgil, Segoe UI Emoji" font-size="16px" fill="#000000" text-anchor="start" style="white-space: pre;" direction="ltr">knitr</text></g><g stroke-linecap="round" transform="translate(10 10) rotate(0 242.46332820317167 164.12859011264095)"><path d="M0 0 C146.06 0, 292.12 0, 484.93 0 M0 0 C119.18 0, 238.35 0, 484.93 0 M484.93 0 C484.93 101.49, 484.93 202.99, 484.93 328.26 M484.93 0 C484.93 84.3, 484.93 168.6, 484.93 328.26 M484.93 328.26 C343.6 328.26, 202.27 328.26, 0 328.26 M484.93 328.26 C316.72 328.26, 148.5 328.26, 0 328.26 M0 328.26 C0 257.38, 0 186.5, 0 0 M0 328.26 C0 262.43, 0 196.6, 0 0" stroke="#000000" stroke-width="1" fill="none"></path></g><g transform="translate(26.948235434794015 25.776072260523847) rotate(0 27.5 10)"><text x="0" y="14" font-family="Virgil, Segoe UI Emoji" font-size="16px" fill="#000000" text-anchor="start" style="white-space: pre;" direction="ltr">quarto</text></g><g transform="translate(295.81738153116885 98.87835329165318) rotate(0 27 10)"><text x="0" y="14" font-family="Virgil, Segoe UI Emoji" font-size="16px" fill="#000000" text-anchor="start" style="white-space: pre;" direction="ltr">pandoc</text></g><g transform="translate(70.37981625173848 307.8297230198364) rotate(0 74 9.5)"><text x="0" y="13" font-family="Virgil, Segoe UI Emoji" font-size="14.977868128239063px" fill="#e67700" text-anchor="start" style="white-space: pre;" direction="ltr">R, Python, Julia, JS</text></g><g stroke-linecap="round"><g transform="translate(154.2029198913691 299.3911996649086) rotate(0 -13.743268040321993 -25.194192959492078)"><path d="M0 0 C-1.04 -4.05, -1.63 -15.9, -6.22 -24.3 C-10.8 -32.7, -23.94 -46.04, -27.49 -50.39 M0 0 C-1.04 -4.05, -1.63 -15.9, -6.22 -24.3 C-10.8 -32.7, -23.94 -46.04, -27.49 -50.39" stroke="#e67700" stroke-width="1" fill="none"></path></g><g transform="translate(154.2029198913691 299.3911996649086) rotate(0 -13.743268040321993 -25.194192959492078)"><path d="M-12.68 -42.38 C-18.58 -45.57, -24.48 -48.76, -27.49 -50.39 M-12.68 -42.38 C-16.85 -44.63, -21.01 -46.88, -27.49 -50.39" stroke="#e67700" stroke-width="1" fill="none"></path></g><g transform="translate(154.2029198913691 299.3911996649086) rotate(0 -13.743268040321993 -25.194192959492078)"><path d="M-21.3 -34.74 C-23.76 -40.97, -26.23 -47.21, -27.49 -50.39 M-21.3 -34.74 C-23.04 -39.14, -24.78 -43.54, -27.49 -50.39" stroke="#e67700" stroke-width="1" fill="none"></path></g></g><g transform="translate(142.38631488713588 145.74762833070943) rotate(0 28 9)"><text x="0" y="13" font-family="Virgil, Segoe UI Emoji" font-size="14.666541985207248px" fill="#000000" text-anchor="start" style="white-space: pre;" direction="ltr">jupyter,</text></g></svg>