<svg version="1.1" xmlns="http://www.w3.org/2000/svg" viewBox="0 0 504.9266564063434 348.2571802252819" width="1009.8533128126868" height="696.5143604505638">
  <!-- svg-source:excalidraw -->

  <defs>
    <style>
      @font-face {
        font-family: "Virgil";
        src: url("https://unpkg.com/@zsviczian/excalidraw@0.12.0-obsidian-10/dist/excalidraw-assets/Virgil.woff2");
      }
      @font-face {
        font-family: "Cascadia";
        src: url("https://unpkg.com/@zsviczian/excalidraw@0.12.0-obsidian-10/dist/excalidraw-assets/Cascadia.woff2");
      }
    </style>
  </defs>
  <rect x="0" y="0" width="504.9266564063434" height="348.2571802252819" fill="#ffffff"></rect><g stroke-linecap="round" transform="translate(55.15244747629981 150.2172778324492) rotate(0 38.357429767626215 55.589688143844924)"><path d="M0.76 1.02 C22.66 -0.4, 43.24 -0.32, 78.29 -0.5 M-0.63 -0.88 C16.32 1.44, 33.95 1.15, 76.45 -0.16 M76.7 -1.64 C75.49 35.58, 75.52 74.96, 77.3 109.7 M77.46 -0.68 C77.34 38.43, 77 78.57, 75.87 110.67 M75.43 111.12 C48.81 112.35, 20.48 110.06, 0.62 109.85 M76.08 110.96 C57.36 112.2, 37.9 111.43, 0.92 111.18 M0.26 109.7 C0.95 89.76, -2.26 63.78, -1.47 -1.41 M-0.21 111.73 C-0.79 70.87, -0.97 30.43, 0.37 -0.06" stroke="#000000" stroke-width="1" fill="none"></path></g><g stroke-linecap="round" transform="translate(209.34158240529635 148.56715931167685) rotate(0 38.357429767626215 55.589688143844924)"><path d="M0.54 0 C26.12 -1.93, 52.93 -2.42, 78.44 -1.6 M-0.07 -0.31 C26.28 -0.37, 53.24 0.31, 76.1 0.54 M77.36 0.24 C78.03 40.51, 75.61 79.53, 77.56 109.55 M77.24 -0.76 C77.71 30.38, 77.97 60.32, 76.63 110.59 M78.26 109.31 C55.03 112.46, 30.09 112.59, 0.14 112.44 M76.61 111.08 C51.57 111.88, 25.88 111.62, -1 111.06 M1.44 111.15 C-0.81 88.09, -0.59 60.14, -0.08 1.86 M0.31 111.18 C0.01 73.75, -0.33 36.97, -0.67 -0.44" stroke="#000000" stroke-width="1" fill="none"></path></g><g transform="translate(67.14948279196324 271.4587745996848) rotate(0 22.5 12.5)"><text x="0" y="18" font-family="Virgil, Segoe UI Emoji" font-size="20px" fill="#000000" text-anchor="start" style="white-space: pre;" direction="ltr">.Rmd</text></g><g transform="translate(228.9062267388063 269.4920938059701) rotate(0 16 12.5)"><text x="0" y="18" font-family="Virgil, Segoe UI Emoji" font-size="20px" fill="#000000" text-anchor="start" style="white-space: pre;" direction="ltr">.md</text></g><g stroke-linecap="round" transform="translate(369.3451583037798 70.15290759573483) rotate(0 26.5 32.5)"><path d="M-0.43 0.17 C18.95 -0.9, 37.63 -1.01, 54.37 -1.53 M0.87 0.52 C17.7 -0.63, 36.56 -0.02, 52.58 0.91 M53.21 1.74 C52.33 17.09, 52.08 35.33, 54.88 64.15 M52.53 0.36 C52.41 20.4, 52.09 39.15, 53.58 64.61 M53.07 65.34 C35.59 66.42, 18.94 63.42, 0.96 64.87 M52.69 64.25 C35.13 65.65, 17.39 64.68, 0.52 64.34 M1.94 66.38 C0.85 42.51, 1.29 17.92, 1.03 1.07 M-0.06 64.33 C-0.1 40.39, -0.52 15.71, -0.37 0.27" stroke="#000000" stroke-width="1" fill="none"></path></g><g transform="translate(379.3451583037798 90.15290759573483) rotate(0 16.5 12.5)"><text x="16.5" y="18" font-family="Virgil, Segoe UI Emoji" font-size="20px" fill="#000000" text-anchor="middle" style="white-space: pre;" direction="ltr">pdf</text></g><g stroke-linecap="round" transform="translate(370.2002414364146 151.07219519642143) rotate(0 26.5 33)"><path d="M1.1 -1.09 C18.08 0.24, 30.24 0.51, 52.47 1.25 M-0.85 -0.73 C11.04 1.04, 23.91 -0.35, 53.45 -0.58 M54.19 1.63 C53.97 16.37, 54.66 30.99, 52.77 65.77 M53.46 0.56 C53.78 20.01, 54.04 39.86, 53.28 65.08 M53.82 64.28 C35.84 65.14, 14.84 64.45, -0.53 64.06 M53.72 66.72 C41.02 64.98, 28.56 65.77, 0.87 65.87 M0.51 67.72 C-1.04 49.79, -0.47 34.92, 1.12 -1.7 M0.77 66.88 C-0.88 52.43, -1.01 38.35, -0.39 -0.3" stroke="#000000" stroke-width="1" fill="none"></path></g><g transform="translate(376.2002414364146 171.57219519642143) rotate(0 20.5 12.5)"><text x="20.5" y="18" font-family="Virgil, Segoe UI Emoji" font-size="20px" fill="#000000" text-anchor="middle" style="white-space: pre;" direction="ltr">html</text></g><g stroke-linecap="round" transform="translate(372.947749041244 237.90035369364523) rotate(0 27 34)"><path d="M-1.81 -0.18 C19.58 0.48, 43.45 -0.69, 52.75 0.2 M-0.36 0.85 C15.43 -0.56, 31.47 0.44, 54.36 0.37 M55.22 1.64 C55.62 24.3, 55.3 49.22, 53.59 69.85 M53.93 -0.25 C53.42 18.05, 54.16 35.96, 54.42 67.78 M53.6 67.91 C36.64 68.35, 17.37 68.32, 1.6 69.1 M54.61 67.62 C36.11 68.21, 18.17 68.14, 0.57 67.89 M1.66 66.91 C-2.1 52.85, 0.97 36.31, -0.38 -0.97 M0.46 68.02 C0.74 42.2, 0.91 16.16, -0.11 -0.72" stroke="#000000" stroke-width="1" fill="none"></path></g><g transform="translate(376.947749041244 259.40035369364523) rotate(0 23 12.5)"><text x="23" y="18" font-family="Virgil, Segoe UI Emoji" font-size="20px" fill="#000000" text-anchor="middle" style="white-space: pre;" direction="ltr">docx</text></g><g stroke-linecap="round" transform="translate(62.52586170699766 162.592563940599) rotate(0 29.5 17.5)"><path d="M1.11 1.49 C20.28 0.13, 42.52 -1.21, 59.43 0.57 M-0.95 0.71 C16.18 0.35, 33.24 -0.03, 58.79 0.19 M59.3 -0.23 C59.16 12.01, 59.85 23.77, 60.17 33.77 M58.01 -0.3 C59.17 8.15, 58.94 14.28, 59.18 35.21 M57.17 34.34 C41.01 34.61, 25.82 34.86, -0.62 34.03 M59.85 34.41 C47.24 34.19, 34.37 34.43, 0.09 34.44 M-1.03 35.16 C-0.08 20.33, 0.4 6.31, -1.92 1.92 M0.34 34.64 C0.56 23.78, 0.34 12.86, -0.52 0.8" stroke="#495057" stroke-width="1" fill="none"></path></g><g transform="translate(68.52586170699766 167.592563940599) rotate(0 23.5 12.5)"><text x="23.5" y="18" font-family="Virgil, Segoe UI Emoji" font-size="20px" fill="#495057" text-anchor="middle" style="white-space: pre;" direction="ltr">text</text></g><g stroke-linecap="round" transform="translate(218.6297560173557 161.30335296513613) rotate(0 29.5 17.5)"><path d="M0.2 1.88 C16.08 0.84, 33.61 -0.2, 57.8 1.63 M0.8 0.56 C17.87 -0.81, 35.85 -0.95, 59.65 0.19 M58.05 -1.27 C57.38 9.75, 57.53 21.34, 57.43 36.84 M59.09 0.95 C58.41 11.49, 60.26 21.04, 58.75 35.69 M59.05 36.65 C44.42 36.34, 29.81 36.11, -1.24 35.73 M58.3 35.79 C38.35 33.87, 16.91 35.18, 0.75 34.7 M-1.69 33.53 C-0.07 22.76, 0.06 10.6, 1.98 1.67 M0.01 34.85 C-0.66 25.33, 0.18 14.3, -0.89 0.8" stroke="#495057" stroke-width="1" fill="none"></path></g><g transform="translate(224.6297560173557 166.30335296513613) rotate(0 23.5 12.5)"><text x="23.5" y="18" font-family="Virgil, Segoe UI Emoji" font-size="20px" fill="#495057" text-anchor="middle" style="white-space: pre;" direction="ltr">text</text></g><g stroke-linecap="round" transform="translate(59.44479877244521 212.1586925258888) rotate(0 33.5 17)"><path d="M1.08 0.65 C23.3 1.4, 45.6 0.3, 66.49 0.55 M-0.81 0.64 C16.36 0.47, 31.03 0.37, 67.71 0.94 M68.07 -1.78 C66.25 14.47, 66.89 25.12, 65.22 33.4 M67.74 -0.86 C67.51 6.23, 66.65 14.77, 67.46 33.82 M67.85 35.93 C48.98 36.05, 26.53 33.55, 1.89 35.02 M66.65 33.63 C47.43 34.35, 25.19 34.16, -0.32 33.31 M0.08 34.74 C0.77 26.77, -0.46 18.04, 1.5 1.62 M-0.84 34.43 C0.62 21.69, 0.02 9.61, -0.63 -0.37" stroke="#087f5b" stroke-width="1" fill="none"></path></g><g transform="translate(64.94479877244521 219.1586925258888) rotate(0 28 10)"><text x="28" y="14" font-family="Virgil, Segoe UI Emoji" font-size="16px" fill="#087f5b" text-anchor="middle" style="white-space: pre;" direction="ltr">R code</text></g><g stroke-linecap="round" transform="translate(217.2955346984637 214.45230628121885) rotate(0 32 15)"><path d="M-1.3 -0.74 C18.74 -2.16, 35.38 -0.35, 63.32 -1.83 M-0.02 0 C22.36 0.64, 44.75 -0.79, 64.77 -0.7 M62.62 0.01 C63.54 12.86, 62.17 20.43, 64.53 31.76 M63.97 0.08 C64.28 8, 64.69 15.55, 64.23 29.39 M65.83 28.69 C38.24 31.74, 17.74 31.82, 0.73 28.76 M63.46 30.24 C42.13 30.08, 22.22 29.23, -0.68 30.74 M-1.07 29.55 C-1.44 19.62, -0.7 7.89, -0.45 -0.22 M0.49 29.68 C0.69 21.41, 0.83 12.08, -0.88 0.81" stroke="#c92a2a" stroke-width="1" fill="none"></path></g><g transform="translate(221.7955346984637 219.45230628121885) rotate(0 27.5 10)"><text x="27.5" y="14" font-family="Virgil, Segoe UI Emoji" font-size="16px" fill="#c92a2a" text-anchor="middle" style="white-space: pre;" direction="ltr">output</text></g><g stroke-linecap="round"><g transform="translate(145.44660084729918 200.7142414889576) rotate(0 26.67414696433646 -1.0242983338765903)"><path d="M0.71 -0.24 C9.6 -0.41, 44.99 -1.51, 53.72 -1.81 M-0.38 -1.41 C8.32 -1.31, 44.05 -0.38, 52.79 -0.3" stroke="#000000" stroke-width="1" fill="none"></path></g><g transform="translate(145.44660084729918 200.7142414889576) rotate(0 26.67414696433646 -1.0242983338765903)"><path d="M26.97 8.44 C35.81 4.36, 43.86 4.3, 51.41 -0.76 M26.83 8.52 C36.91 6.05, 44.89 3.24, 53.28 0.45" stroke="#000000" stroke-width="1" fill="none"></path></g><g transform="translate(145.44660084729918 200.7142414889576) rotate(0 26.67414696433646 -1.0242983338765903)"><path d="M27.32 -9.93 C35.92 -7.9, 43.85 -1.83, 51.41 -0.76 M27.18 -9.86 C37.1 -6.11, 44.96 -2.71, 53.28 0.45" stroke="#000000" stroke-width="1" fill="none"></path></g></g><g stroke-linecap="round"><g transform="translate(297.76278908013626 207.96482554616446) rotate(0 28.74999864190133 -0.31870736156377966)"><path d="M0 0 C9.58 -0.11, 47.92 -0.53, 57.5 -0.64 M0 0 C9.58 -0.11, 47.92 -0.53, 57.5 -0.64" stroke="#000000" stroke-width="1" fill="none"></path></g><g transform="translate(297.76278908013626 207.96482554616446) rotate(0 28.74999864190133 -0.31870736156377966)"><path d="M30.59 9.5 C37.99 6.71, 45.39 3.92, 57.5 -0.64 M30.59 9.5 C37.06 7.06, 43.52 4.63, 57.5 -0.64" stroke="#000000" stroke-width="1" fill="none"></path></g><g transform="translate(297.76278908013626 207.96482554616446) rotate(0 28.74999864190133 -0.31870736156377966)"><path d="M30.37 -10.17 C37.83 -7.55, 45.29 -4.93, 57.5 -0.64 M30.37 -10.17 C36.89 -7.88, 43.41 -5.59, 57.5 -0.64" stroke="#000000" stroke-width="1" fill="none"></path></g></g><g stroke-linecap="round"><g transform="translate(295.0152814753068 203.64613437466153) rotate(0 31.46662149397845 -38.846516572702996)"><path d="M0 0 C10.49 -12.95, 52.44 -64.74, 62.93 -77.69 M0 0 C10.49 -12.95, 52.44 -64.74, 62.93 -77.69" stroke="#000000" stroke-width="1" fill="none"></path></g><g transform="translate(295.0152814753068 203.64613437466153) rotate(0 31.46662149397845 -38.846516572702996)"><path d="M53.16 -49.33 C56.13 -57.96, 59.11 -66.59, 62.93 -77.69 M53.16 -49.33 C55.38 -55.76, 57.6 -62.2, 62.93 -77.69" stroke="#000000" stroke-width="1" fill="none"></path></g><g transform="translate(295.0152814753068 203.64613437466153) rotate(0 31.46662149397845 -38.846516572702996)"><path d="M37.22 -62.25 C45.04 -66.95, 52.86 -71.65, 62.93 -77.69 M37.22 -62.25 C43.05 -65.75, 48.89 -69.26, 62.93 -77.69" stroke="#000000" stroke-width="1" fill="none"></path></g></g><g stroke-linecap="round"><g transform="translate(301.1959381960627 217.9240797069957) rotate(0 30.207758971801766 28.488164086099218)"><path d="M0 0 C10.07 9.5, 50.35 47.48, 60.42 56.98 M0 0 C10.07 9.5, 50.35 47.48, 60.42 56.98" stroke="#000000" stroke-width="1" fill="none"></path></g><g transform="translate(301.1959381960627 217.9240797069957) rotate(0 30.207758971801766 28.488164086099218)"><path d="M32.87 45.1 C41.58 48.86, 50.29 52.61, 60.42 56.98 M32.87 45.1 C43.09 49.51, 53.32 53.92, 60.42 56.98" stroke="#000000" stroke-width="1" fill="none"></path></g><g transform="translate(301.1959381960627 217.9240797069957) rotate(0 30.207758971801766 28.488164086099218)"><path d="M46.95 30.17 C51.21 38.65, 55.47 47.13, 60.42 56.98 M46.95 30.17 C51.95 40.12, 56.95 50.07, 60.42 56.98" stroke="#000000" stroke-width="1" fill="none"></path></g></g><g transform="translate(151.29740840866242 166.2169188873312) rotate(0 18.5 10)"><text x="0" y="14" font-family="Virgil, Segoe UI Emoji" font-size="16px" fill="#000000" text-anchor="start" style="white-space: pre;" direction="ltr">knitr</text></g><g stroke-linecap="round" transform="translate(10 10) rotate(0 242.4633282031717 164.12859011264095)"><path d="M0 0 C124.48 0, 248.95 0, 484.93 0 M0 0 C147.22 0, 294.44 0, 484.93 0 M484.93 0 C484.93 94.22, 484.93 188.43, 484.93 328.26 M484.93 0 C484.93 81.51, 484.93 163.02, 484.93 328.26 M484.93 328.26 C321.85 328.26, 158.77 328.26, 0 328.26 M484.93 328.26 C301.84 328.26, 118.75 328.26, 0 328.26 M0 328.26 C0 255.55, 0 182.83, 0 0 M0 328.26 C0 213.4, 0 98.54, 0 0" stroke="#000000" stroke-width="1" fill="none"></path></g><g transform="translate(26.948235434793958 25.776072260523847) rotate(0 40 10)"><text x="0" y="14" font-family="Virgil, Segoe UI Emoji" font-size="16px" fill="#000000" text-anchor="start" style="white-space: pre;" direction="ltr">rmarkdown</text></g><g transform="translate(295.81738153116885 98.87835329165318) rotate(0 27 10)"><text x="0" y="14" font-family="Virgil, Segoe UI Emoji" font-size="16px" fill="#000000" text-anchor="start" style="white-space: pre;" direction="ltr">pandoc</text></g><g transform="translate(110.7643339272434 27.213677107504623) rotate(0 158 8.5)"><text x="0" y="12" font-family="Virgil, Segoe UI Emoji" font-size="13.69567063804359px" fill="#495057" text-anchor="start" style="white-space: pre;" direction="ltr">(+ bookdown, xaringan, rticles, blogdown, distill)</text></g></svg>